<svg id="svg" version="1.1" xmlns="http://www.w3.org/2000/svg" xmlns:xlink="http://www.w3.org/1999/xlink" width="400" height="400" viewBox="0, 0, 400,400"><g id="svgg"><path id="path0" d="M146.267 137.867 C 146.120 138.013,146.000 149.152,146.000 162.620 L 146.000 187.107 146.900 187.348 C 148.523 187.783,194.331 187.634,194.604 187.193 C 194.742 186.970,195.006 186.880,195.189 186.993 C 196.052 187.526,196.334 139.425,195.476 138.100 C 195.126 137.559,146.804 137.330,146.267 137.867 M217.700 204.287 C 218.305 204.378,219.295 204.378,219.900 204.287 C 220.505 204.195,220.010 204.120,218.800 204.120 C 217.590 204.120,217.095 204.195,217.700 204.287 M255.300 204.287 C 255.905 204.378,256.895 204.378,257.500 204.287 C 258.105 204.195,257.610 204.120,256.400 204.120 C 255.190 204.120,254.695 204.195,255.300 204.287 " stroke="none" fill="#fcc42c" fill-rule="evenodd"></path><path id="path1" d="M217.017 204.352 L 213.033 204.600 212.702 206.200 C 212.280 208.234,212.489 252.829,212.924 253.500 C 213.385 254.212,261.208 254.232,261.920 253.520 C 262.509 252.931,262.609 205.750,262.023 204.824 C 261.629 204.201,225.530 203.822,217.017 204.352 " stroke="none" fill="#fc4484" fill-rule="evenodd"></path><path id="path2" d="M281.001 12.688 C 280.342 12.789,279.670 13.081,279.507 13.336 C 278.965 14.188,279.137 294.577,279.680 295.120 C 280.043 295.483,286.056 295.600,304.290 295.600 L 328.420 295.600 328.812 294.570 C 329.465 292.852,329.136 13.776,328.480 13.120 C 327.968 12.608,284.125 12.209,281.001 12.688 M146.700 29.632 C 145.549 30.302,145.622 119.769,146.774 120.386 C 147.953 121.017,194.487 120.953,195.120 120.320 C 195.817 119.623,195.817 30.377,195.120 29.680 C 194.492 29.052,147.775 29.006,146.700 29.632 M212.887 96.700 C 212.319 98.085,212.546 186.306,213.120 186.880 C 213.955 187.715,261.479 187.637,262.009 186.800 C 262.613 185.844,262.526 97.086,261.920 96.480 C 261.034 95.594,213.253 95.809,212.887 96.700 M79.680 104.880 C 79.072 105.488,78.984 385.839,79.591 386.800 C 80.121 387.637,127.645 387.715,128.480 386.880 C 129.136 386.224,129.465 107.149,128.812 105.430 L 128.420 104.400 104.290 104.400 C 86.056 104.400,80.043 104.517,79.680 104.880 M146.186 204.897 C 146.080 205.174,146.040 225.650,146.097 250.400 L 146.200 295.400 170.800 295.400 L 195.400 295.400 195.400 250.000 L 195.400 204.600 170.889 204.497 C 151.492 204.415,146.337 204.499,146.186 204.897 M213.732 271.201 C 212.373 271.749,212.347 272.717,212.478 318.715 C 212.585 356.336,212.674 361.676,213.200 362.009 C 214.149 362.608,261.318 362.522,261.920 361.920 C 262.288 361.552,262.400 350.922,262.400 316.510 L 262.400 271.580 261.374 271.190 C 260.082 270.699,214.952 270.709,213.732 271.201 " stroke="none" fill="#1c247c" fill-rule="evenodd"></path><path id="path3" d="" stroke="none" fill="#547858" fill-rule="evenodd"></path><path id="path4" d="M195.793 75.000 C 195.793 98.100,195.841 107.491,195.900 95.869 C 195.959 84.248,195.959 65.348,195.900 53.869 C 195.841 42.391,195.793 51.900,195.793 75.000 M93.500 104.300 C 99.275 104.362,108.725 104.362,114.500 104.300 C 120.275 104.237,115.550 104.186,104.000 104.186 C 92.450 104.186,87.725 104.237,93.500 104.300 M160.300 204.300 C 166.075 204.362,175.525 204.362,181.300 204.300 C 187.075 204.237,182.350 204.186,170.800 204.186 C 159.250 204.186,154.525 204.237,160.300 204.300 M195.793 250.000 C 195.793 272.990,195.841 282.395,195.900 270.900 C 195.959 259.405,195.959 240.595,195.900 229.100 C 195.841 217.605,195.793 227.010,195.793 250.000 M160.300 295.900 C 166.075 295.962,175.525 295.962,181.300 295.900 C 187.075 295.837,182.350 295.786,170.800 295.786 C 159.250 295.786,154.525 295.837,160.300 295.900 M293.500 295.900 C 299.275 295.962,308.725 295.962,314.500 295.900 C 320.275 295.837,315.550 295.786,304.000 295.786 C 292.450 295.786,287.725 295.837,293.500 295.900 " stroke="none" fill="#582458" fill-rule="evenodd"></path></g></svg>